<?xml version="1.0" standalone="no"?>
<!DOCTYPE svg PUBLIC "-//W3C//DTD SVG 20010904//EN"
 "http://www.w3.org/TR/2001/REC-SVG-20010904/DTD/svg10.dtd">
<svg version="1.0" xmlns="http://www.w3.org/2000/svg"
 width="1024.000000pt" height="1024.000000pt" viewBox="0 0 1024.000000 1024.000000"
 preserveAspectRatio="xMidYMid meet">

<g transform="translate(0.000000,1024.000000) scale(0.100000,-0.100000)"
fill="#ffffff" stroke="none">
<path d="M2865 8179 c-191 -36 -370 -141 -491 -288 -65 -77 -136 -215 -167
-321 l-21 -75 -4 -1795 c-2 -1268 0 -1818 8 -1872 43 -300 245 -559 518 -662
113 -43 150 -48 377 -55 l220 -6 5 -456 5 -455 28 -42 c43 -65 97 -96 177
-100 84 -5 111 7 280 124 114 79 714 487 1180 804 l185 125 1110 5 1110 6 73
22 c321 98 550 365 593 692 6 48 9 723 7 1870 l-3 1795 -22 76 c-72 254 -254
463 -481 555 -149 60 -127 58 -767 62 -406 2 -610 0 -655 -8 -89 -16 -223 -68
-295 -115 -36 -24 -192 -172 -388 -370 l-328 -330 -307 311 c-169 172 -333
332 -364 357 -64 51 -158 99 -257 130 -64 21 -86 21 -671 23 -347 1 -626 -2
-655 -7z m1257 -472 c48 -24 122 -94 460 -437 439 -448 437 -446 548 -444 34
1 70 9 96 22 26 13 185 167 438 425 357 364 404 408 459 433 l62 29 525 3
c365 2 543 0 585 -8 120 -23 225 -106 279 -220 l31 -65 3 -589 c2 -389 -1
-607 -8 -641 -28 -136 32 -71 -1269 -1370 -661 -660 -1206 -1200 -1211 -1200
-6 0 -549 539 -1209 1199 -1285 1285 -1231 1226 -1266 1365 -13 50 -15 147
-13 647 l3 589 27 57 c31 66 105 149 163 183 90 53 106 54 695 52 l545 -2 57
-28z m-757 -2957 c922 -916 1375 -1374 1372 -1384 -5 -14 -959 -665 -975 -666
-10 0 -13 66 -11 338 2 374 1 382 -64 451 -65 68 -79 71 -402 71 -316 0 -393
9 -469 54 -58 34 -117 101 -152 171 l-29 60 -3 814 -2 814 47 -44 c27 -24 336
-329 688 -679z m4243 -280 l-3 -625 -28 -60 c-37 -79 -114 -156 -191 -192
l-61 -28 -812 -3 c-467 -1 -813 1 -813 6 0 8 794 802 1620 1620 l285 283 3
-188 c1 -104 1 -469 0 -813z"/>
</g>
</svg>
